<svg width="32" height="32" viewBox="0 0 32 32" fill="none" xmlns="http://www.w3.org/2000/svg">
  <!-- Background circle with gradient -->
  <defs>
    <linearGradient id="bg-gradient" x1="0%" y1="0%" x2="100%" y2="100%">
      <stop offset="0%" style="stop-color:#0F172A;stop-opacity:1" />
      <stop offset="100%" style="stop-color:#1E293B;stop-opacity:1" />
    </linearGradient>
    <linearGradient id="icon-gradient" x1="0%" y1="0%" x2="100%" y2="100%">
      <stop offset="0%" style="stop-color:#00ADB5;stop-opacity:1" />
      <stop offset="100%" style="stop-color:#06B6D4;stop-opacity:1" />
    </linearGradient>
  </defs>
  
  <!-- Background -->
  <circle cx="16" cy="16" r="16" fill="url(#bg-gradient)"/>
  
  <!-- Code brackets representing web development -->
  <path d="M9 10L6 13L9 16" stroke="url(#icon-gradient)" stroke-width="2" stroke-linecap="round" stroke-linejoin="round" fill="none"/>
  <path d="M23 10L26 13L23 16" stroke="url(#icon-gradient)" stroke-width="2" stroke-linecap="round" stroke-linejoin="round" fill="none"/>
  
  <!-- Shield representing cyber security -->
  <path d="M16 8L12 10V14C12 17.31 14.69 20 16 20C17.31 20 20 17.31 20 14V10L16 8Z" stroke="url(#icon-gradient)" stroke-width="1.5" stroke-linecap="round" stroke-linejoin="round" fill="none"/>
  
  <!-- Lock icon inside shield -->
  <rect x="14.5" y="13" width="3" height="3" rx="0.5" stroke="url(#icon-gradient)" stroke-width="1" fill="none"/>
  <path d="M14.5 13V12C14.5 11.17 15.17 10.5 16 10.5C16.83 10.5 17.5 11.17 17.5 12V13" stroke="url(#icon-gradient)" stroke-width="1" stroke-linecap="round" fill="none"/>
  
  <!-- Small dots for tech/digital effect -->
  <circle cx="11" cy="22" r="1" fill="url(#icon-gradient)" opacity="0.6"/>
  <circle cx="21" cy="22" r="1" fill="url(#icon-gradient)" opacity="0.6"/>
  <circle cx="8" cy="20" r="0.5" fill="url(#icon-gradient)" opacity="0.4"/>
  <circle cx="24" cy="20" r="0.5" fill="url(#icon-gradient)" opacity="0.4"/>
</svg>
