<svg width="16" height="16" viewBox="0 0 16 16" fill="none" xmlns="http://www.w3.org/2000/svg">
  <!-- Background circle with gradient -->
  <defs>
    <linearGradient id="bg-gradient-16" x1="0%" y1="0%" x2="100%" y2="100%">
      <stop offset="0%" style="stop-color:#0F172A;stop-opacity:1" />
      <stop offset="100%" style="stop-color:#1E293B;stop-opacity:1" />
    </linearGradient>
    <linearGradient id="icon-gradient-16" x1="0%" y1="0%" x2="100%" y2="100%">
      <stop offset="0%" style="stop-color:#00ADB5;stop-opacity:1" />
      <stop offset="100%" style="stop-color:#06B6D4;stop-opacity:1" />
    </linearGradient>
  </defs>
  
  <!-- Background -->
  <circle cx="8" cy="8" r="8" fill="url(#bg-gradient-16)"/>
  
  <!-- Code brackets -->
  <path d="M4.5 5L3 6.5L4.5 8" stroke="url(#icon-gradient-16)" stroke-width="1" stroke-linecap="round" stroke-linejoin="round" fill="none"/>
  <path d="M11.5 5L13 6.5L11.5 8" stroke="url(#icon-gradient-16)" stroke-width="1" stroke-linecap="round" stroke-linejoin="round" fill="none"/>
  
  <!-- Shield -->
  <path d="M8 4L6 5V7.5C6 9.16 7.34 10 8 10C8.66 10 10 9.16 10 7.5V5L8 4Z" stroke="url(#icon-gradient-16)" stroke-width="0.8" stroke-linecap="round" stroke-linejoin="round" fill="none"/>
  
  <!-- Lock -->
  <rect x="7.2" y="6.5" width="1.6" height="1.5" rx="0.2" stroke="url(#icon-gradient-16)" stroke-width="0.6" fill="none"/>
  <path d="M7.2 6.5V6C7.2 5.56 7.56 5.2 8 5.2C8.44 5.2 8.8 5.56 8.8 6V6.5" stroke="url(#icon-gradient-16)" stroke-width="0.6" stroke-linecap="round" fill="none"/>
</svg>
